<svg width="45" height="44" viewBox="0 0 45 44" fill="none" xmlns="http://www.w3.org/2000/svg">
<g clip-path="url(#clip0_42_56)">
<path d="M42.32 18.0759L6.01296 3.34547C4.4834 2.72483 2.75547 2.99785 1.50338 4.05764C0.251286 5.11759 -0.272366 6.75066 0.136852 8.31971L3.70468 22.0003L0.136852 35.6808C-0.272366 37.2499 0.251198 38.8829 1.50329 39.9429C2.75775 41.0049 4.48612 41.2745 6.01296 40.6551L42.32 25.9246C43.9731 25.254 45 23.7502 45 22.0003C45 20.2503 43.9731 18.7466 42.32 18.0759ZM41.3094 23.5433L5.00239 38.2737C4.39181 38.5213 3.72903 38.4168 3.2292 37.9937C2.72945 37.5706 2.52862 36.9442 2.69192 36.3178L6.08968 23.2893H19.1911C19.9193 23.2893 20.5095 22.7122 20.5095 22.0002C20.5095 21.2882 19.9193 20.711 19.1911 20.711H6.08977L2.69192 7.68274C2.52862 7.05642 2.72945 6.42994 3.2292 6.00687C3.72894 5.5838 4.39155 5.47913 5.0023 5.7268L41.3094 20.4573C42.2872 20.8539 42.3632 21.7386 42.3632 22.0003C42.3632 22.2619 42.2872 23.1466 41.3094 23.5433Z" fill="#4EA52F"/>
</g>
<defs>
<clipPath id="clip0_42_56">
<rect width="45" height="44" fill="white"/>
</clipPath>
</defs>
</svg>
