<svg id="Layer_1" data-name="Layer 1" xmlns="http://www.w3.org/2000/svg" viewBox="0 0 602.45 193.92"><defs><style>.cls-1{fill:none;}.cls-1,.cls-2{stroke:#000;stroke-linecap:round;stroke-linejoin:round;stroke-width:2.5px;}.cls-2{fill:#15a802;}</style></defs><path class="cls-1" d="M1.25,1.25H2.4s12.46,4,15.73,19.63,26.28,17,39,17,36.22,1.63,47.16,13.83S136.86,70.05,152,63c11.9-5.54,25.18-16.86,35.64-20.56.22,7-5.06,24-9.24,44.9-1.67,8.36-4.32,21.05-7.18,34.55-6.31,29.82-13.62,63.61-13.62,63.61s-40.43-13.73-53.3-17.26-28.53-6.06-58.57-9.59S1.25,147.05,1.25,147.05"/><path class="cls-1" d="M2.4,1.25S13.1,1,18.13,7s11.79,9.17,16.49,7.47,8.08-.37,13.16,1.69,21.24.19,31,0,26.89,16.54,37,13.91,12.41-2.63,28,3.2S181,37.94,186,39.06c1.08.24,1.58,1.42,1.64,3.39a16,16,0,0,1,7.76-1.07c10.94,1.76,29.93,2.14,39.24-.51a95,95,0,0,0,13.2-4.51"/><path class="cls-1" d="M220.6,150.59c0,.18-.08.44-.14.76-.54,3.32-1.68,13.45,3.55,17.78,6.32,5.23,12.55,4.68,20.19.7l.54-.3c7.14-4.1,8-12.79,8-12.79s18.4-8.42,21.83,11.46a9,9,0,0,1,0,1.56c-.55,4.43-5.07,8.81-14.12,13.09-2.25,10.92,10.09,10.64,15.23,9S288,183.06,288,183.06s.43,1.9,7.69,3,15.43-3.77,15-8.14a5.43,5.43,0,0,0-1.21-3,6.13,6.13,0,0,0-.81-.8c-1.8-1.5-4.68-2.39-8.15-3.74-5.65-2.18-7.16-10.84-10.92-10.69s1,7,7.45,10.09c3,1.42,7,3.18,11.12,4.67l1.31.47c4.41,1.51,8.83,2.66,12.2,2.69,6.85.08,11.05-3.12,9.91-7.3a5.83,5.83,0,0,0-1.48-2.49,3.51,3.51,0,0,0-.34-.33,21.91,21.91,0,0,0-4-2.86c-2.61-1.55-5.92-3.31-9.62-5.86-8.1-5.56-8.92-11.54-7.78-11.37s6,8.35,10.23,11.13a48.6,48.6,0,0,1,7.17,6.1c.77.72,1.55,1.42,2.41,2.08a8.24,8.24,0,0,0,1.42.86c.17.09.35.17.54.25,3.5,1.45,8.82,1.57,13.75.69,6-1.06,9.11-5.8,7.23-10.46a5.07,5.07,0,0,0-.55-1c-3-4.64-14-11.26-19.06-16.41a13.26,13.26,0,0,1-3.38-5.08c-3.68-4-5.63-7.29-5.33-10.67.49-5.64,5.35-3.76,5.25,1.58-.07,3.51-.9,6.13.08,9.09,2.46,2.65,5.68,5.59,9.52,9,6.12,5.48,9.71,9.28,13.84,11.85a25.81,25.81,0,0,0,8.15,3.3c9,2.08,16.53-3.37,17.82-9.71A13.87,13.87,0,0,0,375,138.59a26.36,26.36,0,0,0-6.36-6c-7.83-5.44-18.22-10.39-24.76-20.1-.72-1.07-1.48-2.16-2.26-3.25"/><path class="cls-1" d="M298.53,62.87c6,5.46,18.53,17.11,23.66,22.74,1.33,1.46,2.79,3.09,4.34,4.85"/><path class="cls-1" d="M242.71,68.55c-.62.06-1.26.1-1.91.12-12.58.4-25.2-7.67-27.09-13.08s1.26-8.17,12.58-8.8c10.89-.61,20.73-9.71,21.47-10.41l0,0h0"/><path class="cls-1" d="M220.66,150.27a1.65,1.65,0,0,1-.06.32,6.36,6.36,0,0,1-.14.76c-1.45,6.33-7.92,9-15.16,5.7-7.64-3.51-6.08-17.46-6.47-20.9s-4.44-6.54-7.87-7.4-19.79-6.85-19.79-6.85,3.72-1.1,12.85-.87,12.31,1.87,15.36,7.87,14.42,14.58,19.8,16.61,17.7-.94,25.49,2.65,4.52,9.59,2,15.28a30.7,30.7,0,0,0-2,6.09c-1.13,5.36-.78,11.49,4.53,14.34,7.56,4,16.14-4.6,23.31-12.16q1.05-1.11,2-2c6-5.32,9.5-4,9.5-4,5.22.64,4.23,14.1,7.06,14.74s9.09.21,14.8-4.37c.77-.62,1.52-1.17,2.24-1.66.17-.12.33-.23.5-.33,4.4-2.9,8.09-3.63,12.91-4.22a30.59,30.59,0,0,0,8-2.33l.2-.08c3.55-1.49,7.42-3.5,11.84-5.63a87.57,87.57,0,0,0,8.93-4.82c.31-.19.62-.39.92-.6a44.53,44.53,0,0,0,9-8c5.57-6.35,7.89-9.17,13.46-9.8l1-.12c5.26-.62,10.75-1.49,17.11-5.66,6.77-4.45,9-6.07,14.46-6s20.73-2.89,20.59,2.75-.71,24.4-.71,24.4,10.67,3,29-4.14,21.32-7.1,36.71-7.1,107.18-7.55,107.18-7.55"/><path class="cls-1" d="M601.21,6V135.29h-1.85S495,132.77,470.13,130.11A187,187,0,0,1,426,119.82s-.76-4.71-1.58-10.73c4.19-5,6.52-11,6.34-16.6-.31-9.81-.81-35.35-5.21-42.48s-7.73-12.28-7.73-12.28,25.78-.91,49.74-7.13,48.69-9.25,62-9.41,33.37-1.82,44.59-6.52S601.21,6,601.21,6Z"/><path class="cls-2" d="M424.45,109.09a31.85,31.85,0,0,1-12.05,8.84c-11.44,4.8-22.58-1-33.51-6.54s-9.91-2.35-20,.1c-5.52,1.34-11.93-.12-17.25-2.2-4.71-6.61-10.29-13.35-15.09-18.83-.23-1.66-.44-3.38-.66-5.12-1-8.18-6.74-20-15.53-22.58-3.39-1-7.51-.66-11.81.11-1.18-1.07-2.11-1.91-2.68-2.41-3.46-3.07-22.08-2.78-29.31-1.29-6.85,1.4-12.55,8.33-23.83,9.38a58.55,58.55,0,0,1-15-4.56c-10.5-4.66-9.7-11.75-8.38-12.67s4,1.12,14.41,1.12,12.77-9,18.69-16.35,15.33-3.16,27.59-3,21.25-7.35,28.4-7.35,9.91,3.47,18.8,7.45,39.64,17.68,50.47,18.09,25-9.5,29.32-9.4,4.18,6.23,7.76,12.67,7.12,26.46,7.79,37.08C422.86,96.78,423.69,103.5,424.45,109.09Z"/><path class="cls-1" d="M242.71,68.55c5.43.8,10.62.48,15.12-1.4,8.58-3.57,12.05-.71,21-.71,5.52,0,12.81-2.35,19.66-3.57"/><path class="cls-1" d="M326.53,90.46c.85,6.14,2,11.42,5.16,13.67a48.71,48.71,0,0,0,9.93,5.16"/></svg>