<svg id="Layer_1" data-name="Layer 1" xmlns="http://www.w3.org/2000/svg" viewBox="0 0 613.01 292.22"><defs><style>.cls-1{fill:#15a802;}.cls-1,.cls-2{stroke:#000;stroke-linecap:round;stroke-linejoin:round;stroke-width:2.5px;}.cls-2{fill:none;}</style></defs><path class="cls-1" d="M234.74,258.66c-.36-.52-11.35-16.09-12.72-25C224.71,242,234.41,258.11,234.74,258.66Z"/><path class="cls-1" d="M240.85,243.54c.05,3.51.47,7,.47,7-3.13,0-15.75-27.86-19-20.87a7.23,7.23,0,0,0-.31,4,17.47,17.47,0,0,1-.52-1.91c-1.57-7.62-7.52-11.48-8.46-4.38-.82,6.16,6.74,25.31,8.72,30.17-2.1-4.88-10.17-23.63-10.07-21,.05,1.37,1.34,8.14,2.76,15.39l-47.78-52.12a11.38,11.38,0,0,1-2.77-5.5l-1.78-9.23c3.29-.48,5.93-1.27,6.34-2.34,1.17-3,.88-5.88-5.79-6.57-.76-.08-1.53-.14-2.3-.2l-1.57-8.16c6.91-.44,18.24-2.45,16.62-8.7-1.16-4.43-11-2.6-18.47-.94h0l-1.49-7.76c2.26-2.29,4.43-4.38,5.37-5.42a7,7,0,0,0,1-7.14s5.22-.36,10.87-1.06l11,16.24s1-2.75,2.42-6.74l41.5,37.8,2.27,2.06a9.73,9.73,0,0,1,3.05,5.61l8,48.07.94,5.63C241.56,244.86,241.2,244.21,240.85,243.54Z"/><path class="cls-1" d="M186.14,146.3c-1.41,4-2.42,6.74-2.42,6.74l-11-16.24c-5.65.7-10.87,1.06-10.87,1.06a3.1,3.1,0,0,0-3.25-1.93c-1.09.11-3.05,1.32-5.33,3.19l-.86-4.44-.28-1.46-1.32-6.88-1.63-8.45a2.16,2.16,0,0,1,3.57-2l17.58,16,1,.94h0l4,3.61Z"/><path class="cls-1" d="M541.11,54.58C538.67,69,532.34,79.91,527,85.88a34.64,34.64,0,0,1,2.6-6.81c2.78-5.18,2-20.33-4.17-18.31s-8.84,20.83-12.5,21.72c0,0-3.41-53.28-40.4-30.56,0,0,2.14-8.79,6.65-13-.93.47-15.86,8.28-17.88,12.81.1-.51,1.79-8.73,2.64-10.32l-9,12.64.23-9.41-7.55,8.13s1.31-24,22.55-35.09,41.87-6.07,46-3.49S529,16.65,532,20.9,544.45,34.85,541.11,54.58Z"/><path class="cls-2" d="M527,85.88a21,21,0,0,1-5.29,4.5c-5.46,2.88-6.53,11.38-11.23,14.57a63,63,0,0,1-7.92,4.08c-8.11,3.65-19.52,7.82-24,7.39l-.64-.07c-3.42-.53-6.93-2.62-9.87-6.49a34.31,34.31,0,0,1-5.75-13.54C459.43,83,461,65,459.75,60.67s-3-4.45-3-4.45,11.81.22,10.36,9.47S461,85.53,464.87,87.2a13.85,13.85,0,0,0,3.9.85,9.32,9.32,0,0,1,2.79-2.86C476.8,81.63,478,88,478,88a55.89,55.89,0,0,1-9.25.07c-2.07,3.33-1.53,7.53-1.44,11.85a97.7,97.7,0,0,0,.7,10c.59,4.67,1.66,9.13,3.53,10.4a11.21,11.21,0,0,1,2.87-.91,6.16,6.16,0,0,1,4.93.91c1.59,1.22.66,3.29-1,4.64a6,6,0,0,1-1.54.95,3,3,0,0,1-3.59-.43c-1.4-1.51-1-3.67,1.2-6.07a20.88,20.88,0,0,1,3.47-3,45.38,45.38,0,0,1,6.7-3.85c7.48-3.58,14.27-4.67,17.94-3.47a4,4,0,0,1,2.57,2c1.67,3.67,8.91-.56,11.36,2.89,1,1.4,1.49,7.13,1.84,13.74.26,5.1.43,10.75.65,15.34a49.13,49.13,0,0,0,.86,8.7c1.45,4.57,5.46,15.72,5.35,22s.11,9.92.11,9.92,1.67-7.13,4.79-6.24c2.95.84,7.71,30.24,10.56,30.63-4.32-17.77,12-41,14.85-42.89,3-2-11.59,39.45-14.38,42.68a.5.5,0,0,1-.47.21,21.34,21.34,0,0,0,1.14,3.47c2.34,5.68,16.16,23.85,17.94,29.2,1.18,3.54,1.29,15.71,3.45,23.64,1.11,4.06,2.75,7,5.36,7.12,7.69.33,43.24,0,43.24,0"/><path class="cls-2" d="M479.19,38.93l0,0"/><path class="cls-2" d="M461.28,51.76s0,0,0,0"/><path class="cls-2" d="M521.55,184.13c-.5.16-10.45,3.27-16.43,1.82-3.24-.78-5.31-2.89-4.12-7.53,0,0-9,1.73-5.4,21s10.52,46.89,11.73,58,14.75,26,25.71,28.15,21.13-2.32,30.12-21.23l.33-.69c9.07-19.49,5.55-26.52,10.83-39.24s21.51-35.59,21.24-46,4.2-30.18-3.79-35.59-40.46-17.46-48.17-20.3c-.79-.29-1.59-.62-2.39-1-7-3.19-13.74-9-11.55-13.62,2.05-4.32,10.87,5.78,11.55,13.62a8,8,0,0,1-.59,4.11c-3.52,7.57-18.94,20.29-21.11,18.26A2.71,2.71,0,0,1,519,143c-1.33-2.78-2.09-10.44-.65-15.34a6.5,6.5,0,0,1,2.42-3.85c4.74-3,11-8.26,6.49-16.78-3.11-5.94-2.09-14.67-.24-21.17"/><path class="cls-2" d="M479.16,39l0,0h0"/><path class="cls-2" d="M521.57,184.12h0c-.53.33-10.87,6.8-14.74,6.3-1.88-.24-2-1.45-1.69-4.48a88.48,88.48,0,0,0,.36-17.8C504.12,151.21,495.1,154.42,492,144c-6.36-21.4,6.68-17.56,6.68-17.56a6.38,6.38,0,0,0-7.29,1.49c-3.36,3.45-.44,13.35-.44,13.35s-.58,1.16-4.48.29-5.77-9.69-2.31-14.31,14-2.31,14-2.31c-9.5-6.15-14.92-1.07-17.57,3.32a20.78,20.78,0,0,0-2.09,4.63c-4.08.32-3.61-4.87-1.7-7.08a2.65,2.65,0,0,1,1.54-.95,1.75,1.75,0,0,1,.84.08c.8.27,1.22,1.54,1.41,3.32.6,5.88-1.41,17.36-1.41,17.36S464,131.58,459.93,127.08a6.35,6.35,0,0,1-1.36-5.41c.62-3.91,3.74-7.82,6.2-8.2,3.7-.58-1.38,6.46-5.76,8.07a3.88,3.88,0,0,1-.44.13c-5.41,1.33-29.07-1.26-35.56-.7-6.69.57-16.85,16.15-28.15,27.69a72.82,72.82,0,0,1-35,19.42c-9.9,2.3-25.48,9.69-31.65,13.93s-13.92,4.8-22.1,1.14-22-.57-33.73,1.37-10.69,7.25-7.39,9c1.58.82,9.34,1,17,.9a31.47,31.47,0,0,1,2.54-3.92c1.79-2.08,12.84-1.79,13.92,3.52,0,0-8.17.33-16.46.4-2.12,3.7-4.56,8.69-4.71,10.29-.22,2.37,5.53,9,8.54,12.85a37.51,37.51,0,0,0,6.36,6.37l1.36-4.48-.13-4.38-7.67-9.66,5.79-6.29,4.32,6.29L292,210.19,296,212l4.73-6.2.81-7.58,3.51,1.3-1,4.41-9.46,11.66-1.17,3.85.09,3.06a6,6,0,0,0,3.84,1.59c2-.13,6.27-7,14.42-12.42a29.16,29.16,0,0,0,5.85-4.94c-.29-5.86,1.2-13.3,2.8-9.73,1.13,2.53.45,6-2.8,9.73,0,.11,0,.21,0,.31.35,5.89.16,3.26,8.68,3.26,4.35,0,9.9-.59,14.16-2.56s7-5.07,6.53-10.23c-1-10.38-15.1-15.63-15.54-15.79"/><path class="cls-2" d="M331.51,181.69h0c.29.55,10.11,19.23,9,26a4.22,4.22,0,0,1-.24.93c-2.38,5.89-11.91,6-11.91,6,7.65,6.65,23.95-1.5,38-4.38s25.11-9.74,35.43-15.79,16-11.39,20.11-9.78,5.52,32.56,3.56,45c-1.52,9.67-3.47,27.58-2,37.12,2.88-.5,5.87-.63,7.54.43,3.91,2.49-.54,9.61-5.34,5.34-1.08-1-1.78-3-2.2-5.77a50.85,50.85,0,0,0-7.59,2l-152.45-.51"/><path class="cls-2" d="M155.45,150.42c-4.38,4.41-9.11,9.55-6,9.29,1.43-.12,4.24-.81,7.5-1.53"/><path class="cls-2" d="M1.25,269.31s33.12.74,47,1c2.86.05,4.91.08,5.7.08,4.65,0,13.33,9.52,8,10.79-4,1-10.25-2.6-13.74-10.87A32.94,32.94,0,0,1,46,261.07c-1.7-14.81,5.5-27.93,6.56-37.24s-.22-25.19-.22-25.19.65-35.69,6-51.4,15.1-26.47,37.06-28.89A54,54,0,0,0,121,108.42a46.51,46.51,0,0,0,8.48-7.62s2.72,7.67-6.55,12.31c-1.25.62-2.86,1.34-4.71,2.1-11.84,4.9-33.48,12-33.48,12s17.41,18.06,16.14,32.28-5.1,33.85-4.34,43.2a51.05,51.05,0,0,1,.19,6.92c-.34,6.22-2.53,11.39-9.72,15.2-9.73,5.15-24.61,6.49-22.7.19,1.45-4.78,18.53-8.57,32.42-15.39a49.81,49.81,0,0,0,11.63-7.49c13.16-12,25.9-23.12,27.81-29.71,1.16-4,1.52-7.16,3.81-9.49,1.45-1.5,3.7-2.67,7.45-3.54,0,0-5.23,7-7.45,3.54a6.24,6.24,0,0,1-.77-2.38c-.52-3.33,1.95-8,5.34-12.35a59,59,0,0,1,8.73-9"/><path class="cls-2" d="M217.63,268.21c-60.91-.2-113.63-.37-119.34-.37a51,51,0,0,0-8.42.7c-4.15,3.66-8,6.23-10.4,5.93-4.51-.56,1-4.34,10.4-5.93a127.26,127.26,0,0,0,15.76-17.18c5.74-7.7,21.79-26.78,27.26-35.9s15.47-16.73,19.78-20.75c3.18-3,4.29-6.08,3-9.13-4.4.08-8.36-.4-8.92-1.56-1.27-2.64,2.65-5.68,6.67-1.66a10,10,0,0,1,2.25,3.22,51.08,51.08,0,0,0,6.41-.49"/><path class="cls-2" d="M160.37,176c-5.93-.47-11.62-.57-11.62-3.52,0-3.34,2.75-4.22,9.61-4.61l.44,0"/><path class="cls-2" d="M267.12,246.29c-.7,5.42-2.07,14.23-3.71,22.07-1.5,7.26-3.24,13.69-4.89,15.88-3.44,4.54-12.52,9.7-20.26,4.66s-19.86-14.52-20.07-17.23c0-.46-.24-1.7-.56-3.46-.73-3.87-2-10.24-3.18-16.27-1.42-7.25-2.71-14-2.76-15.39-.1-2.76,8.74,17.89,10.31,21.57-1.5-3.65-9.81-24.3-9-30.75.94-7.1,6.89-3.24,8.46,4.38a17.47,17.47,0,0,0,.52,1.91c1.37,8.91,12.36,24.48,12.72,25-.33-.55-10-16.63-12.72-25a7.23,7.23,0,0,1,.31-4c3.24-7,15.86,20.87,19,20.87,0,0-.42-3.48-.47-7,.35.67.71,1.32,1.06,1.93,6.58,11.56,12.12,11.65,14.4,9.88,3.26-2.54-7.06-12.49-12.13-17.93-2.06-2.21-2.92-.45-3.21,2.42l-8-48.07a9.73,9.73,0,0,0-3.05-5.61l-2.27-2.06a163.66,163.66,0,0,1,4.59-38c2.36-9,2.36-14.48-.44-15.68s-29.9-13.08-35.23-11.88a4.67,4.67,0,0,0-1.9,1c.15-.69.27-1.29.33-1.79a6,6,0,0,0-1.27-4.83,28.65,28.65,0,0,1,5.38,1.3c12.76,4.19,49.67,16,55.85,26.13s6.76,37.16,6.76,43.42-2.7,28.49-.49,36.35S268.47,235.85,267.12,246.29Z"/><path class="cls-1" d="M211.65,58.36s-1.09-4.46-5-5.54c1.54-8.14-5.83-19.32-5.83-19.32,1.29,10.15-6,13.06-6,13.06,2-6.67-3-16.92-3-16.92C190,31.75,173.5,42.87,173,43.22c5.28-7.3,2.39-17.35,2.39-17.35-17,17.41-23.23,41.39-23.23,41.39-4.36-22.12-13.94-21.72-16.76-14.6-1.62,4.08-1,8.86.59,12.92l-2.4,11.93c-3.22-14.5-11.23-18.35-9.65-42,1.76-26.38,22.86-33,45.91-34.19s37.91,15.82,41,25.2S211.65,58.36,211.65,58.36Z"/><path class="cls-2" d="M186.14,146.3c2.81-7.91,7.2-20.71,8.52-26.75-4.38,3.55-7.94,14.8-14.39,16.08-1.53.3-3.21.58-4.93.82-.87.13-1.75.24-2.61.35l-2.73-4-.33-.48.67-.38c2.87-1.61,14-8.05,15.19-11.64s.95-8.23,8.19-7.33c-1.76-2.22-4.83-3.52-6.26-6.2a6.33,6.33,0,0,1-.74-2.32c-.79-6.34,7.27-11.62,9.26-20.84a9.23,9.23,0,0,0,.21-3.28c-4.09.26-8.84-.37-8.25-1.26.78-1.16,7.54-3.76,8.25,1.26,2.18-.13,4.17-.52,5.06-1.26,2.57-2.12-3.18-9.52-5.27-13.61s-.33-10.73,6.78-12.55a7.49,7.49,0,0,1,3.93,0"/><path class="cls-2" d="M133.57,77.51a50.36,50.36,0,0,1,.9,5.47c1.76,15.83-8.27,18.7-13.47,25.44a13.79,13.79,0,0,0-2.55,5.24,9.16,9.16,0,0,0-.23,1.55c-.94,12.24,16.25,39.28,16.25,39.28a48,48,0,0,1,8.95-13.76,23.49,23.49,0,0,1,9-6,16.31,16.31,0,0,1,2.89-.73,29.85,29.85,0,0,1,5.08-.93,64.21,64.21,0,0,1,9.61-.26l1.37.08h0"/><path class="cls-2" d="M222.07,258.28l-.07-.16"/><path class="cls-2" d="M222.23,258.67l-.06-.14"/><path class="cls-2" d="M222.07,258.28l-.07-.16"/><path class="cls-2" d="M234.75,258.67h0"/><path class="cls-2" d="M240.85,243.54h0a31.23,31.23,0,0,1,.12-3.69"/><path class="cls-2" d="M240.85,243.54h0A118.37,118.37,0,0,1,233,223.3a133.35,133.35,0,0,1-5.32-39.2"/><path class="cls-2" d="M152.14,133.22s-17.4-12.83-19.4-17.91-1.06-7.29,2-4,16.08,15,16.08,15-10.95,9.06-6.27,21.8"/><line class="cls-2" x1="150.82" y1="126.34" x2="160.4" y2="133.03"/><path class="cls-2" d="M206.69,52.82c-1.54,8.14-.45,21.21-1.8,25.75s-8.11,16.09-10.69,21.37a13.47,13.47,0,0,1-6.74,6.79c-2.57,1-5.73,1.09-9.47-.53-8.23-3.56-29.59-15.6-30-20.38s1.35-9.71,0-9.83-3.81.86-7.62-3.07A22.41,22.41,0,0,1,136,65.58c-1.56-4.06-2.21-8.84-.59-12.92,2.82-7.12,12.4-7.52,16.76,14.6,0,0,6.22-24,23.23-41.39,0,0,2.89,10.05-2.39,17.35.52-.35,17-11.47,18.87-13.58,0,0,5,10.25,3,16.92,0,0,7.29-2.91,6-13.06C200.86,33.5,208.23,44.68,206.69,52.82Z"/><line class="cls-2" x1="217.63" y1="268.21" x2="263.41" y2="268.21"/><line class="cls-2" x1="133.57" y1="77.51" x2="133.43" y2="78.21"/><line class="cls-2" x1="136.28" y1="64.02" x2="135.97" y2="65.58"/></svg>