<svg id="Layer_1" data-name="Layer 1" xmlns="http://www.w3.org/2000/svg" viewBox="0 0 482.89 440.72"><defs><style>.cls-1{fill:none;}.cls-1,.cls-2{stroke:#000;stroke-linecap:round;stroke-linejoin:round;stroke-width:2.5px;}.cls-2{fill:#15a802;}</style></defs><path class="cls-1" d="M1.25,439.35s398.8.74,400.41-1.52S457.48,213,461,198.55s6.41-23.16,14.62-19-6.95,51-10.32,66.76-38.88,176-42.45,181.34-22.11,3.71-22.11-5.66,61.52-233.29,62-238.72-6.83-5.74-5.05-10.55,23-2.85,23.9,2.67-17.3,2.32-33.53,5.71-56.66,21.15-73.65,25.74S332.36,220,315,214.47s-17.4-13.8-30.08-13.8-16.26,15.51-21.18,18.72-12.44,2.82-18-6.55-15.51-23.71-34.39-28.1-36.49-4.58-38.45-2.29-1.47,10.63-7.69,10.63-5.59-4.45-9.45-3.45-7.86,19.29-13.14,22.72-14.86-1.58-22.86-7.58-15-10.85-19-6.57-4,12.72-6.85,10.57-11.73-8.5-13.43-18.68c.91-1.31,21.28,41.9,24.28,49.21s8.62,16.45,9.79,31.33,9.57,74,9.67,74.35a17.36,17.36,0,0,1,3.15-15.63c6.09-8,15.53-8.89,19.41-21.8s12.49-52.23,14.95-63.39,6.7-50.42,6.7-50.42,2.07-14.14.52-16S157,166.9,156.22,167.58s8.14,10.66,26.94,15S247,208.38,253,213.45s.11,10.79-4.86,14.78S186,284,175.05,293.58s-44.11,40-48.78,49.44-18.6,37.79-18.6,37.79-11-5.7-20-3-19.74,21-21.29,28.87-5.51,14.85-9.25,10.49-31.35-35.37-38-66S4.07,278,9.25,253.44s13.4-36,26.19-42.43S77.82,186.16,75,184.82s-50.67,28.62-48.47,35.56,41,52.44,46,68.81,4.24,46.26,6.27,57.67,7.4,37.55,6,41.66S74.52,393.62,74.27,402s-3,29.35,1.74,30.72,24.63,1.86,27.36-.87.25-5-6.84-6.72-12.93-7.34-12.93-7.34,7.09,9.08,21.76,9.33,20-6.22,15-8.58-15.3-4.35-28.23-12.44S107,422.22,122.28,417s-7.22-21.89-22.64-26.62c0,0,17.29,13.93,30.22,14.8s1.49-12.81-6.84-17.91-23.27-10.55-29-8.57-9.18,9.82-9.18,9.82"/><path class="cls-2" d="M167,60.58c-10.12-.29-18.28,2.38-29.36,5C125.33,68.55,94.8,66.43,85,69.5l-.38.12c-4,0-7.22-.05-9.45-.26a28.2,28.2,0,0,0-9.36.52c-3.42-.62-5.63-1.16-5.85-1.61-1.08-2.15-2.61-37.64,11.82-51.46s36.72-18.28,57.62-14,32.42,36.11,35.49,42.41C167,49.59,169.7,56.24,167,60.58Z"/><path class="cls-1" d="M90.85,205.1s-12-16.56-9.5-23.69c2.43-6.92,5-10,5.13-10.14h0c4.62,4.06,23,21.66,34.42,27.39,8.09,4,12.94,9.73,15.27,16.92a37,37,0,0,1,1.66,9.8c.53,12-6.57,22.11-8,11.06-.71-5.56,2.48-13.45,6.31-20.86s8.19-14.2,10.07-17.88c3.77-7.39,5.26-18.58,3.43-31.27s7.4-33.48,11-46.63,1.84-45.46,1.84-45.46-5.6.4-13,.85c-8,.5-18.1,1.06-25.45,1.26h0a63,63,0,0,1-9.34-.15c-1.92-.38-9.29-1.23-18-2.27-5.76-.68-12.12-1.44-17.9-2.21-5-.66-9.66-1.32-13.07-1.93-7.21,1.76-8.91,6.31-2.63,6.54,6.44.23,10-2.11,15.7-4.61,1.69-.73,3.56-1.49,5.74-2.19,21.74-.12,64.67-3.34,75.2-5,3.83-.62,6.07-2.09,7.25-4"/><path class="cls-1" d="M167,60.58c1.16,0,2.35.1,3.57.22,11.85,1.13,10,6.49,3.87,9.49-3,1.47-13.46,3.54-24.89,4.89-8.93,1.07-18.45,1.7-25.45,1.26h0a35.64,35.64,0,0,1-5.91-.79A72.4,72.4,0,0,0,96.75,74c-8.84.76-16.41,3.68-17.24,10.37C78,96.62,82.88,116.58,82.13,125.2a5.61,5.61,0,0,1-.34,1.61c-2.09,5.37-12.21-4.69-14.63-15-2.62-11.1,1.75-18,8.36-13.22S80.76,116.83,81,121.7a16.63,16.63,0,0,0,.78,5.11c.94,2.81,3.19,6.8,8.87,15.92a35.47,35.47,0,0,0,4.19,5.33c10.23-.24,39.45,11.95,38.55,18.78-.82,6.21-26.14-5.55-38.55-18.78a6.22,6.22,0,0,0-.88.05c-9.31,1-5.85,11.88-6.23,17.52a16.09,16.09,0,0,1-1.76,6c-1.79,3.58-4.65,6.61-7.25,7.27-3.51.89,5-5.62,7.25-7.27l.5-.36"/><path class="cls-1" d="M75,184.82s2.69-1.23,3.71-5.92"/><path class="cls-1" d="M95,433.62s7.08,3.57,48.51,3.19,328.76-5.05,328.76-5.05"/><path class="cls-1" d="M470.15,257.08s-16.2,6.45-18.63,2.15,14.48-16.05,19.92-15.76,3.87,12.18,3.87,12.18,7.31,7.6-1.29,13.33c4.16,4.59,2.87,9.61.15,11.61.28,7.46-.26,13.87-6.34,15.18-1.67,1.55-8.91,5.3-11.55,4.29l5.89-39.32s-16.48,3.9-17.31,9.82,25.55-1,25.55-1S444.32,274.09,443,280.9s24.66,2.48,24.66,2.48-20.79-1.26-26,7.27,25.48,2.76,25.48,2.76"/></svg>