<svg id="Layer_1" data-name="Layer 1" xmlns="http://www.w3.org/2000/svg" viewBox="0 0 398.03 411.77"><defs><style>.cls-1{fill:none;}.cls-1,.cls-2{stroke:#000;stroke-linecap:round;stroke-linejoin:round;stroke-width:2.5px;}.cls-2{fill:#15a802;}</style></defs><path class="cls-1" d="M17,374s75.14,7.64,102.17,5.27,30.41-2.13,30.41.46-17.91,4.61-56.76-15.32-79-59.11-71.08-135.15c.62-3.37,37.41,9.81,86.46,12s172.54,8.3,214.71-.56,51-14.66,42.47-19.86S289.8,215,288,219.8s-1.67,23.7-5.18,24.82"/><path class="cls-1" d="M347.9,217.59S306.07,212.5,290,212.5c0,0-2.14-21.3,1.48-22s25.54,12.88,33,4.52S327.67,149,327.67,149s-.94,7.59-9.06,7.59-11.08-3.71-11.82-7.59,2.77-4.25,3.33,0,4.8,5.56,4.62,11.29-.91,18.54-.91,18.54-14.23-4.63-22.34-9.1-11.15-6.59-13.76-5.58-1.34,4.34,0,9.35,3.44,14.37,5.38,16,3.39,11.95-3.39,15-14.68,6.78-17,4.36,16.79-6.62,18.89-.81-1.06,14.46-13,15.65-20.1-3-26.82-7.7a33.4,33.4,0,0,0-14.45-5.35s12.86,15.13,14.22,22,7.92,12.74,7.92,12.74"/><path class="cls-1" d="M291.49,169.68a17.27,17.27,0,0,0,10,10.29c7.71,2.82,17.68,8.28,18.05,3.57s.06-27.51-.8-30.28-10.48-14.4-2.66-20.07,41.85-6.29,48.14-4.76,6.13,15.49-1.23,18.09-68.49,2.76-71.5,1.54.5-7.49-3.82-7-5.17,8.05-.66,6.1.85-8.54,8.17-9.88,19.14-2.35,19.14-2.35"/><path class="cls-1" d="M358,127.81s10.19,9,1.15,19C359.12,146.85,345.3,136.88,358,127.81Z"/><path class="cls-1" d="M287.67,141.06a20.33,20.33,0,0,0,.52-5.76h0"/><path class="cls-1" d="M236.93,159.06h0"/><path class="cls-1" d="M238.36,157.85h0"/><path class="cls-1" d="M236.93,159.06h0"/><path class="cls-1" d="M247.87,167c-4,2.7-11.18,2.7-14.78,12.59S218.06,200,216.52,205a18,18,0,0,0-.43,5.72,62.87,62.87,0,0,0,1,8.17A76.86,76.86,0,0,0,219.73,229c2.19,6.29,7.84,8.73,7.71,9.5s-4.2,4.22-4.36,6.63a.76.76,0,0,0,0,.15c0,2.41,3,9.79,3,9.79s3.32-2.36,3.88-5.42c.55,3.89,2.08,6,3.06,2.71s2.64-1.32,4.45.9,7,1.67,7-1.66v-6.31h0"/><path class="cls-1" d="M267.29,155.85l12,8s6.55-5.39,7.75-16.7"/><path class="cls-1" d="M288.19,135.3h0"/><path class="cls-1" d="M276.27,166h0c-.13.27-2.25,4.55-3.25,5.43-.5.44-3.12-1.43-5.7-3.72"/><path class="cls-2" d="M272.16,123.87c-14.13.11-21,12.73-25.36,19.79s-10.65,5.33-16,6.37-2.87,5.51-.68,9.62c1.51,2.84,4.86.89,6.78-.58-1.58,1.51-3.66,4.13-1.77,6.1,2.82,3,12.72,1.8,12.72,1.8l9.07-2.54h0a8.76,8.76,0,0,1,1,1.45l0,.06,0,0c1.36,1.91,3.78,5,5.69,5.52,2.81.83,3.62-3.79,3.62-3.79-2.71-2.42-5.38-5.29-5.44-6.41-.12-2.18,5.42-5.46,5.42-5.46l.69-6.51c-4.06-1.9-5.82-7.44-2.71-9.53s5.28,4.66,5.28,4.66c1.73-11.07,17.16-9.23,17.63-9.17C287.76,128.68,283.24,123.78,272.16,123.87Zm-35.23,35.19a15.06,15.06,0,0,1,1.42-1.2A16.51,16.51,0,0,1,236.93,159.06Z"/><path class="cls-2" d="M314.25,78.34s1.29-13.94-.29-17.1-26.27-3-34.45-.71-16.22,25.4-21,28.84-8.75-3.87-8.18-11.05.86-14.35-5.31-18.23-10.51-7.68-9.55-16.2,1.13-15-7.56-16.1-9.16-7-12.07-10.54-7.38,5.59-20.13,3.8-18.34-21-62.4-6.26S50.07,71.93,47.51,76.9,50.56,84,50.88,89.09s2.08,18,9.14,25.66,30.15,4.65,36.72,4.81,5.34,13.2,10.52,16.27,16.9.2,22.09,11.14-18.82,19.78-25.16,17.29-24.2-5.38-29.57,1.53-19.4,6.91-30.15,3.65S13.74,160,7.41,179.62c-5.27,16.29,2.22,32.32,4.89,37.28-29.56-52,4.42-124.64,51.92-164.8,48-40.57,99.17-56,148-49.34S312.9,51.38,320,62.61C323.18,67.58,320.61,72.69,314.25,78.34Z"/><path class="cls-1" d="M13.15,218.38a1.05,1.05,0,0,1-.08-.13c-.13-.22-.26-.43-.38-.65,0,0,0-.08-.06-.11l-.14-.25-.19-.34"/><path class="cls-1" d="M314.25,78.34l0,0C306.43,85.28,293,93,277.47,102.17a2.2,2.2,0,0,1-.26.15L276,103c-18.67,11.08-82.45,43.39-125.48,65-23.77,11.93-41.2,20.58-41.2,20.58-10.44,4.79-29.58,13.27-47.16,20.62-2.54,1.07-5,2.11-7.49,3.11-17.41,7.13-31.59,12.34-31.4,10.4.4-4,22-10.11,31.4-10.4.24,0,.47,0,.69,0l4.68,0c23.5-.18,122.29-1.2,156-1.55l11.35-.12"/><path class="cls-1" d="M258,166c1.4,2.46,3.58,7.89,2.53,16.73-1.1,9.18-5.59,25.69-11.84,37.33-2.35,4.36-4.94,8-7.69,10.4h0c-.38.16-9.58,4.15-14.87,0-5-4-2.91-10.13-9-11.56a9.35,9.35,0,0,0-1.54-.25c-8-.73-150.38,8.67-155.67-2.13a4.68,4.68,0,0,1,.14-4.24,12,12,0,0,1,2.12-3.06c9.43-10.34,41.45-23.17,63.41-31.15q12.68-4.84,25-10.05c51.61-21.84,96.89-47.44,126.66-65.69a2.2,2.2,0,0,0,.26-.15c22.36-13.71,35.91-23.22,36.74-23.8l0,0"/><path class="cls-1" d="M12.3,216.9l.19.34.14.25s0,.07.06.11c.16.29.29.51.38.65a1.05,1.05,0,0,0,.08.13l0,.07"/><path class="cls-1" d="M257.94,165.9c-.56-.77-.92-1.35-1-1.45"/><path class="cls-1" d="M231.61,211.39s12.4-15,12.88-18.19-6.74,8.58-5.45,21,2,16.22,2,16.22"/><line class="cls-1" x1="227.44" y1="238.52" x2="244.09" y2="238.52"/><path class="cls-1" d="M367.33,226.54s-5.14,65.12-45.95,102.31-122.83,52.8-145.75,48.48-4.54-12.22,17-10.1,140.67,32.92,204.11,43.29"/><path class="cls-1" d="M321.38,328.85s.14-11.72-10.07-7.84-27.82,16-32.4,7.84-10.92-21.93-23.6-13.13-27.47,37.69-40.85,40.51-24.3-14.44-32.4-14.44-20,5.81-30.05-.2-18.66-12.66-19.31-7.94,21.82,17.13,32.37,25.53,32.52,20.8,48.85,21,54.88-8.69,80.75-26.75S321.38,328.85,321.38,328.85Z"/></svg>