<svg id="Layer_1" data-name="Layer 1" xmlns="http://www.w3.org/2000/svg" viewBox="0 0 721.08 317.14"><defs><style>.cls-1{fill:#15a802;}.cls-1,.cls-2{stroke:#000;stroke-linecap:round;stroke-linejoin:round;stroke-width:2.5px;}.cls-2{fill:none;}</style></defs><path class="cls-1" d="M116.51,7.9c-1.5,3.6-10,6.74-14.39,14.18s-9.66,12.12-11,7.27-.47-6.46-3.77-6.26-13.71,4.24-13.71,4.24l.44-19.47s19.31-9.67,22.3-5.62.85,8.44,5.12,6.84S118,4.29,116.51,7.9Z"/><line class="cls-1" x1="73.63" y1="27.33" x2="72.26" y2="88.79"/><path class="cls-1" d="M273.11,42.67s-11.4,4.9-17.67,12.77-10.72,11.4-15.74,7.64-13.11-14-23.95-3.88l1.6,79.67a13.57,13.57,0,0,0-3.07,0l-.47-108.8s25-2.69,28.51-1.67.92,14.83,6.39,14.49S262.74,34.91,273.11,42.67Z"/><path class="cls-1" d="M353.52,181.18c-20.7,1.59-23.38,27.53-35.68,31.43s-15.23-9.26-20.83-18.76-16.81.24-16.81.24l3.71,102a74.1,74.1,0,0,1-16.8.71c4.51-4,13.16-4.89,13.16-4.89l-5.52-129.33s23.48-3.2,34.32-.88,9,12.78,10,20.58,8.53.12,17.42-2.56S353.52,181.18,353.52,181.18Z"/><path class="cls-2" d="M1.25,95.93s43.56,0,56.27,1.56l.29,0A12.56,12.56,0,0,1,60,94.35a.08.08,0,0,1,0,0c2.36-2.57,6.85-5.72,14.6-5.58,11.74.2,15.38,6.73,13.29,11a5.84,5.84,0,0,1-.88,1.3c-3.66,4.1-28.39,10.08-30.11,0a5.79,5.79,0,0,1,.57-3.57A9.92,9.92,0,0,1,60,94.35a.08.08,0,0,1,0,0c7-6.15,23.42-8.13,25.51,5.25l2.38.2c13,1.23,76,8.71,120.61,41.51,0,0-11.83,1.75-7.86,10.31,3.25,7,20.76,4,27.53-.59,1.5-1,2.47-2.11,2.65-3.2.81-5-7.7-8.35-13.52-8.92l.08,4A44,44,0,0,1,228.22,151c5.24,5.37,10.35,13.45,10,24.33-.72,21.94-19.92,36.09-25.11,48.79s-8.12,28,1,44c7.51,13.18,28.16,26.92,53,28.65a7,7,0,0,0-2.58,6.63c1.52,9.7,10.8,12.6,20.35,8.31,3.67-1.64,5.62-4.09,6.22-6.57A55.85,55.85,0,0,1,285,296c4.52,1.11,7.05,5.22,6.08,9.21,2.71,3.28,6.11,6.35,9.7,7.12,8.45,1.8,86.43,3.44,95.15,3.34s87.25-2,87.25-2-.38-37.71,1.12-39.87a2.21,2.21,0,0,1,1.79-.66c3.13-.13,9.1,2.24,10.66,5.79a4.28,4.28,0,0,1,.36,1.36c.5,5.32,6.32,3.16,8.65,5.82a13,13,0,0,1,2.61,4.87c.16.59.22.95.22.95L484.82,313l.14-15.36s8.36,2.63,13.62.55c2.68-1.06,6.4-3.93,9.81-7.27a46.22,46.22,0,0,0,7.83-9.68c1.84-3.35,40.93-67.89,74-122.7l3.7-6.12,3.86-6.4,4.13-6.84"/><path class="cls-2" d="M623,104.21c-5.77,9.62-13,21.69-21.07,35l7.78,5.81s11.33-13.24,13.92-14.88,9.66-2.56,8.48-.18a39.31,39.31,0,0,0-1.46,4.57c-2.18,7.84-5.66,22.56-4.63,22,1.34-.74,15.14-22.71,19.44-23.3s8.38,7.56,8.38,10.06c0,1.18-5.52,6.26-11.67,11.57l-.36.31c-.6.53-1.22,1.06-1.84,1.58L636.1,160l-5.32,4.48c-2.23,1.87-3.93,3.3-4.63,3.95-1.9,1.75-3.8,11.32-5.08,19.23-.9,5.59-1.48,10.35-1.53,11-.08.92-1.67,1.09-3.29.94a12.25,12.25,0,0,1-2.7-.56c-1.75-.63,5.27-29.67,4.58-30.95s-15.73-6.37-23.35-7.86c-.27,0-.55-.12-.82-.19a15.84,15.84,0,0,1-3.7-1.49c-5.38-2.93-8.81-8.37-5-9.93a6.32,6.32,0,0,1,.76-.27,7.43,7.43,0,0,1,7.31,1.83s15.26-23.5,29.74-46h0a1,1,0,0,0,.08-.14c11.24-17.42,22-34.18,24.74-38.84,6.32-10.69,2.4-24.42-7.63-24.42s-18.31,15.87-30.56,34.1-116.74,184.39-121,191.46c-1.88,3.14-2.69,5.12-2.56,6.73.15,2,1.77,3.44,4.58,5.8,2.19,1.84,4.11,1.58,6.08,0,2.57-2.07,5.21-6.43,8.64-11.36,6-8.71,121-195.49,121-195.49s11.36,6.26,10,9.59c-.28.68-5.37,9.23-13.3,22.44a1,1,0,0,1-.08.14h0"/><path class="cls-2" d="M597.82,146s7.72,10.24,11.6,9.32,12.45-6.71,13.07-9.32a43.49,43.49,0,0,0,.71-6.9l-1.73,19.49s-4.32-3.39-9.19-3.47S594,152.43,594,152.43V160"/><line class="cls-2" x1="585.97" y1="148.35" x2="589.26" y2="151.71"/><path class="cls-2" d="M676.91,292.44s-19.39-40-19.8-44.1S675.13,281.13,676.91,292.44Z"/><path class="cls-2" d="M657.4,249.52s-6.19,1.27-5.44-5,3.79-42.77,1.9-49-6.62-7.21-11.47-7.21-22.57-1.76-23.54,0-2.6,11.23-2.6,11.23S605.42,265.73,605,276.7s-2.63,23.42-1.52,23.42,11.92-1.72,12.73-.5,1.31,9.29-2.63,12.12-25.35,6.46-23.94,1.51,11.52-11.66,16.87-12.83,11.31-2.22,12.53-4.64,6.44-59.24,10.66-72.67,5.59-20.15,4.66-19.81-2.07,4.73,2.42,10.49,5.07,33.53,6.92,38.72S664.48,295,667,297.1s11.52-1.77,13.84,3.55,4.27,12.26-.81,14.22-16.42,1.39-16.54-4.39,10.64-17.35,13.41-18-10.06,10.87-6.12,22.32c12.71-.35,49,0,49,0"/><path class="cls-1" d="M652.15,106.49c-.29,0-6.37-.42-6.86-4.55-.33-2.67-18.52-1.41-18.1-2.4s16.4-.92,21.28.35C651.36,100.64,652.26,103.46,652.15,106.49Z"/><path class="cls-2" d="M652.16,106.49h0a17.23,17.23,0,0,1-1.28,5.91c-1.7,4.1-5,6.82-5.11,12.28s5.89,5.4,9,8.24-5.5,26.62-5.09,34.3,11.33,24.95,11.22,28.13-16,8.59-16.86,6.15-1.8-46.67-1.8-46.67L636.1,160s1.21,28.63-.7,33.3-6.78,5.08-6.78,1.37,2.16-30.19,2.16-30.19"/><path class="cls-2" d="M629.39,104.13s-.89,17.07.72,19.42,8.34,1.38,10.44-1.94,2.92-5.1,4.45-6.56,1.75-5.26-1-4.12-4.28,1.94-5.17-.16S629.39,104.13,629.39,104.13Z"/><path class="cls-2" d="M640.48,112.07a12.62,12.62,0,0,1,1.06,7.94"/><line class="cls-2" x1="629.39" y1="104.13" x2="627.19" y2="99.54"/><path class="cls-2" d="M632.13,129.94s2.26-3,2.48-5.17"/><path class="cls-2" d="M630.67,134.52s8.17-3.87,11.07-5.51a27.71,27.71,0,0,1,4.39-2.14"/><path class="cls-2" d="M655.8,199.29S653.19,168,653.86,158s0-14.72,0-14.72"/><path class="cls-2" d="M660.85,195.35s-1-9.7-3.94-16.89-3.16-9.83-3.16-9.83"/><path class="cls-2" d="M657.75,248.56c-.16-.21-2-50-2-50"/></svg>