<svg id="Layer_1" data-name="Layer 1" xmlns="http://www.w3.org/2000/svg" viewBox="0 0 640.58 361.27"><defs><style>.cls-1{fill:#15a802;}.cls-1,.cls-2{stroke:#000;stroke-linecap:round;stroke-linejoin:round;stroke-width:2.5px;}.cls-2{fill:none;}</style></defs><path class="cls-1" d="M249.16,145.25c-4.38,58.61-30.74,95.43-99.76,98.39L77.59,295l34.73-80s52.77,20.19,83.46-8.08c0,0-52.94-22.88-52.48-81.8.19-23.36,5.47-45.33,16.62-64.15C211.9,62.21,252.4,101.81,249.16,145.25Z"/><path class="cls-2" d="M639.33,356.41l-41.53.26-52.55.32c-5.91-14.86-31.45-41.12-48.33-53.67-16.58-12.34-35-43.59-35.63-44.7"/><path class="cls-2" d="M461.28,258.59a0,0,0,0,1,0,0c.57,1.12,18.74,37.22,34.31,51.17C511.42,324,537.44,360,537.44,360h63.73s-1.24-1.25-3.37-3.36c-4.12-4.1-11.55-11.44-19.71-19.29-12.37-11.9-26.35-43.08-28.58-52.46a52,52,0,0,1-1-7.75c-.2-2.95-.32-6.35-.4-9.92-.3-12.79,0-27.82-.43-32.68-.67-7.7-6.36-8.71-13-11.61s-26.46-22.89-31.48-27.91-10.05-4.58-15.19-2.34-21.32,10.27-27.91,11c-6.34.75-8.13,3.26-8.05,6.73,0,.12,0,.25,0,.38v0l0,.48c0,.32,0,.63,0,.92,0,2.44-.72,4.09-3.76,3.74a12.52,12.52,0,0,1-2.05-.44c-5.36-1.56-21.63-15.87-22.64-16.77"/><path class="cls-1" d="M358.35,265.39,285.6,222.64s-35.36,9.67-50.41,2.87c0,0,18.19-14.36,21.06-27.12l95.84-.18a63.92,63.92,0,0,1-23.73,11.34Z"/><path class="cls-2" d="M1.25,197.9H57.49S27,115.51,102.64,75.27C122.22,64.86,141.77,60.59,159.92,61c17-28.66,47.49-50,94.26-57.86C331.65-9.84,387.32,46.29,391,101.5c2.86,42.37-14.54,78.47-38.94,96.71l71.35-.14s18.8,5.78,18.8,6.82-1.38,3.8-3.34,3.8-13.84-8.89-15.09-9.81l-.06,0h0l0,0h0"/><path class="cls-2" d="M448.44,216s1.09,10.34.49,10.84-5.5,1.6-4.8,5,7.29,4,6.79,4.7-6.59,3.4-5.79,7,6.09,4.9,8.09,4.2-6,2.5-.8,7.09,6.4,2.2,5.9,0-4.7-5.19-5.2-10.09-2-13.79-1.88-15.79,5.75-3.76,5.84-4.69-.23-8.14-.23-8.14l-11.54-9.5,17.4,9.84S491.44,213.58,493,214s4.9,6.62,7.44,8.34,2.9,3.54,3,6,2.18,9.53,2.18,11.34-2.72,6.89-7.8,10.16-8.8,3.8-12.79,1-12.73-10.1-12.51-19.37c0,0-4.17-1.73-4.39-2.66s-6.81-9.77-6.81-9.77l-6.78-4.47"/><polygon class="cls-2" points="448.99 209.18 477.17 228.52 482.49 228.52 462.71 216.47 448.99 209.18"/><path class="cls-2" d="M473.17,236.29c1.23,2.08,5.6,0,5.6,0l3.29-2.68s7.34-4.81,9.84-4.69a74.82,74.82,0,0,1,9.15,1.84l-11.71-4.87-7.28,2.37L505,241.88S559.4,273.26,560.12,275s-1,4.62-2.15,5.45-3.19.41-5.76-1.13-52.48-30.89-52.48-30.89a93.5,93.5,0,0,0-8.25-5.73c-2.55-1.37-12.71-6.42-12.71-6.42-.54-2.44-6.28-4.81-6.28-4.81"/></svg>