<svg id="Layer_1" data-name="Layer 1" xmlns="http://www.w3.org/2000/svg" viewBox="0 0 557.68 354.21"><defs><style>.cls-1{fill:#15a802;}.cls-1,.cls-2{stroke:#000;stroke-linecap:round;stroke-linejoin:round;stroke-width:1.61px;}.cls-2{fill:none;}</style></defs><path class="cls-1" d="M246.45,70.42c-5.88,3.87-2.35-2-12-7.29S219.78,67,218.83,71.36s-.47,8.93,2.24,9,9.4,1.65,13.51,6.11S236.7,96.74,228.7,106a32.26,32.26,0,0,1-4.85,4.65c-4.39.5-8.65,3.24-11.24,4.16-4.35,1.52-20.92-11.64-22.1-7.41s.59,11.4-10.57,14.22S163.84,115,163.37,108s4.11-9.76,8.93-9.87,7.52-2.82,2.94-7.87S154.09,75.82,150,75.47,147,70.18,149.27,66s10.1-18.44,14.93-20.8,6,8.35,11,10.34,14.33-12.92,14-20.68-11.75-2.23-15-6.58,7.28-19.86,8.69-22.91,3.65-2.23,7.88.24S210.49,24,217.31,21.89s-4.7-15.28,4.58-20,20,6.7,22.56,13.63-12.92,7.05-14.92,11.52S247,41.28,253.85,45.39,252.32,66.54,246.45,70.42Z"/><path class="cls-2" d="M33.05,353.4s4.45-29.11-4.28-51.85S7.1,226.73,6.83,206.36s-3.18-39.13-5.55-56.31,4.23-21.68,20.36-24.33,35.17-4.66,34.11-5.73-24,4.1-25.06,1.37,9-33.11,15.79-36.44,14.28-1.67,14.28-1.67a55.26,55.26,0,0,1,20.5-27c15.79-10.93,24.6-13.82,22.78-16.4l-.08-.1c-12,7-24.52,14.56-28.32,16.5-6.23,3.19-2-10.48,4.56-16.4s21.63-2.66,23.76-.1c7.67-4.46,15.12-8.71,20-11.14,11.58-5.79,32.23-17.36,38-14a2.63,2.63,0,0,1,1,1c3.65,6.07-5.32,13.66-16,14.27s-10.78-3.95.3-10.48c4.92-2.89,10.29-4.68,14.61-4.79,5.44-.16,9.24,2.33,8.48,8.59C169,34.34,156.58,41.94,144.28,46.49S114.36,65.17,109.2,74.13s-8.37,14.52-15.82,14.65c-7.28.12-27-3.63-27.92-3.79"/><path class="cls-2" d="M65.43,85h0c1.14.4,31.75,11,40.74,13.8,9.16,2.8,15.51,12.93,18,17,1.19,2,5.57,8.79,9.53,16,4.17,7.57,7.87,15.51,6.85,18.53-2,5.87-12.69.82-15.51-10.7-2.27-9.25.93-15.92,8.66-7.83a53.74,53.74,0,0,1,6.49,8.77c12.35,20-10.34,27.74-19.39,18.92s-18.79-14.21-22.56-32c-1.52,3.76-13.39,2.12-21.85-2.58C68.18,120.3,51,114.54,50,114.19"/><path class="cls-1" d="M404.47,80.8a10.2,10.2,0,0,1-10.94.57c-2-1.22-3.11,3.6-3.67,8.74s2,15.43-2.54,18.7-25.07,6-28.91,3.67-5.55-3.92-4.32-10.12,3.67-9-1-9.48-10.29-1.79-13,.17-.49,9.71.25,13-.25,4.82-.25,4.82c-5.86-4.3-12.33.8-14.3,2.59-7.05,0-14.56.38-17-3.41-2.86-4.49-2.45-17.8-2.29-23.27s-.57-7.92-3-6.37-11.6,9.23-14.38,5.72-10.2-13.4-5.55-23,11.68-9.72,13.56-6.86,10.86,10.45,13,4.24-2.61-25.71-2.37-30.7,2.54-5.88,4.57-5.71,21.24-1,22.54,3.67-3.83,8.41-3.34,12.91,8.82,8.16,17.23,7.26,10.12-5.72,8.65-8.82-6-9.06-2.12-12.73,31.36-.42,31.44,1.63-2.2,11-.57,21.8,3,11.6,4.82,10.86,11.27-7.18,16.66-.82S409,77.78,404.47,80.8Z"/><path class="cls-2" d="M507.7,114.19c-1,.49-15.68,8-25.56,18.89a54.4,54.4,0,0,1-8.16,7.35c2.74-.22,4.6.83,4,3.9-1.34,7.39-15,10.24-15.62,6-.43-3.11,4.78-4.83,11.57-9.86-3.86.32-9.45,3.17-12.49,6.51-5.21,5.7,1.93,10.24,7.8,11.08s23.6-2.27,30.65-12.93c0,0,10.24,13.93,28.71,12-6.91,6.29-11.7,14.82-11.16,29-16,9.67-27.18,21.75-25.92,40,0,0,0,2.89-17.39,18.17s-17.13,37.95-15.81,51.39-6.32,36.09-6.32,36.09l.79-37.68s-8.7-19-12.91-24-4-8.44,9.22-19.5a55.5,55.5,0,0,0,20.29-39.26c1.05-14.23-8.69-25.3-11.39-27.67s-.16-27.62,0-29.18"/><path class="cls-2" d="M458.05,154.41v.07c-.26,1.19-3.89,17-14.12,23.28-10.65,6.51-27.49,16.68-29.24,16.05s-15.57-5.88-23.19-17.16c-6.08-9-8.43-14.25-15-14.64-2,4.42-9.42,8.55-16.92,12.09-8.74,4.14-13.66,1.43-13.19-.31s12.55-8.42,24.15-11.12a20.91,20.91,0,0,1,6-.66,5.55,5.55,0,0,0,.56-2.2c.15-5.24-4.61-21.58-22-38.87-5.95-5.92-14.95-10.09-14.95-10.09s-2.53,2.86-10.45,2.61c-1.25,0-2.54,0-3.85,0-.39.35-.6.57-.6.57-6.47,7.41,2,24.33,3.64,31.26s4.24,24.56,9.05,33.6,27.61,29.15,30.08,41,10.93,19.86,12.22,27.14,7.06,34.57,19.63,51.87,25.54,27,28.23,36.47,4.32,18,4.32,18H125.3s1.64-8.56,4.32-18,15.66-19.16,28.23-36.47,18.33-44.59,19.62-51.87,9.76-15.28,12.22-27.14,25.26-32,30.09-41,7.4-26.67,9-33.6,10.11-23.85,3.64-31.26a9.32,9.32,0,0,0-8.61-3.33c-5.82,4.43-11.25,4.81-20,10.69-11.12,7.46-23.35,33.2-23.19,38.44a5.39,5.39,0,0,0,.56,2.2,20.84,20.84,0,0,1,5.95.66c11.6,2.7,23.68,9.37,24.15,11.12s-4.44,4.45-13.18.31c-7.51-3.54-14.89-7.67-16.92-12.09-6.59.38-8.93,5.64-15,14.64-7.62,11.28-21.44,16.52-23.19,17.16s-18.59-9.54-29.23-16.05C103.6,171.54,100,155.88,99.65,154.5"/><path class="cls-2" d="M99.63,154.41l0,.09c.26,1.36,3.15,16.28,3,23.1-.16,7.15-5.24,20-9.21,42.26S98.8,258,103.2,263.28a22.49,22.49,0,0,1,3.85,20c-2,6.23-1.46,50.18-1.46,50.18s-5-37-11.91-59S57,225.91,57,225.91c5-29.18-16.76-39.85-16.76-39.85,2.36-21.91-11.16-29-11.16-29,18.47,1.93,28.72-12,28.72-12,7,10.66,24.76,13.76,30.64,12.93s13-5.38,7.81-11.08c-3-3.34-8.64-6.19-12.5-6.51,6.8,5,12,6.75,11.57,9.86-.58,4.28-14.27,1.43-15.62-6-.55-3.07,1.31-4.12,4-3.9a54.86,54.86,0,0,1-8.15-7.35C65.67,122.18,51,114.68,50,114.19l0,0h0"/><path class="cls-2" d="M507.75,114.17h0a.05.05,0,0,1,0,0c-1.06.35-18.19,6.11-26.39,10.67-8.45,4.7-20.33,6.34-21.85,2.58-3.76,17.75-13.51,23.15-22.56,32s-31.73,1.06-19.39-18.92a53.41,53.41,0,0,1,6.5-8.78c7.73-8.07,10.92-1.4,8.66,7.84-2.83,11.52-13.52,16.57-15.52,10.7-1-3,2.68-11,6.86-18.54,4-7.17,8.34-14,9.53-15.95,2.43-4,8.78-14.16,17.94-17,9-2.76,39.6-13.4,40.74-13.8"/><path class="cls-2" d="M492.25,85h0c-.86.16-20.63,3.91-27.92,3.79-7.45-.13-10.65-5.69-15.81-14.65S425.71,51.05,413.4,46.49s-24.75-12.15-26.12-23.38c-.76-6.26,3.05-8.75,8.48-8.59,4.33.11,9.69,1.9,14.61,4.79,11.08,6.53,10.93,11.09.3,10.48s-19.59-8.2-15.95-14.27a2.63,2.63,0,0,1,1-1c5.76-3.31,26.41,8.26,38,14.05,4.85,2.43,12.31,6.68,20,11.15,2.1-2.57,17.31-5.76,23.76.09s10.78,19.59,4.56,16.4c-3.81-1.94-16.32-9.49-28.32-16.49a.32.32,0,0,0-.08.09c-1.83,2.58,7,5.47,22.78,16.4a55.33,55.33,0,0,1,20.5,27s7.44-1.67,14.27,1.67,16.86,33.71,15.79,36.44-24-2.43-25.05-1.37,18,3.09,34.11,5.73,22.73,7.14,20.35,24.33-5.28,36-5.55,56.31-13.22,72.45-21.94,95.19-4.28,51.85-4.28,51.85"/></svg>